<svg xmlns="http://www.w3.org/2000/svg" xmlns:xlink="http://www.w3.org/1999/xlink" width="500" zoomAndPan="magnify" viewBox="0 0 375 374.999991" height="500" preserveAspectRatio="xMidYMid meet" version="1.0"><defs><g/><clipPath id="d499d57b76"><path d="M 67.519531 187.5 L 307.519531 187.5 L 307.519531 307.5 L 67.519531 307.5 Z M 67.519531 187.5 " clip-rule="nonzero"/></clipPath><clipPath id="66e6e14ea8"><path d="M 67.519531 67.5 L 307.519531 67.5 L 307.519531 187.5 L 67.519531 187.5 Z M 67.519531 67.5 " clip-rule="nonzero"/></clipPath><clipPath id="1ec72caa7e"><path d="M 97.125 97.210938 L 277.875 97.210938 L 277.875 277.789062 L 97.125 277.789062 Z M 97.125 97.210938 " clip-rule="nonzero"/></clipPath><clipPath id="8d4739d788"><path d="M 187.5 97.210938 C 137.585938 97.210938 97.125 137.636719 97.125 187.5 C 97.125 237.363281 137.585938 277.789062 187.5 277.789062 C 237.414062 277.789062 277.875 237.363281 277.875 187.5 C 277.875 137.636719 237.414062 97.210938 187.5 97.210938 Z M 187.5 97.210938 " clip-rule="nonzero"/></clipPath><clipPath id="808d43e010"><path d="M 118.410156 110.214844 L 254.910156 110.214844 L 254.910156 238.464844 L 118.410156 238.464844 Z M 118.410156 110.214844 " clip-rule="nonzero"/></clipPath><clipPath id="91c7c17d2b"><path d="M 61.863281 61.847656 L 313.113281 61.847656 L 313.113281 313.097656 L 61.863281 313.097656 Z M 61.863281 61.847656 " clip-rule="nonzero"/></clipPath><clipPath id="8ec34e973b"><path d="M 54.652344 54.632812 L 320.152344 54.632812 L 320.152344 320.132812 L 54.652344 320.132812 Z M 54.652344 54.632812 " clip-rule="nonzero"/></clipPath><clipPath id="94211b56e5"><path d="M 75.265625 249.714844 L 147 249.714844 L 147 287.214844 L 75.265625 287.214844 Z M 75.265625 249.714844 " clip-rule="nonzero"/></clipPath><clipPath id="d5b565312a"><path d="M 228 249.714844 L 300 249.714844 L 300 287.214844 L 228 287.214844 Z M 228 249.714844 " clip-rule="nonzero"/></clipPath><clipPath id="a5e3eea764"><path d="M 62.964844 246 L 311.964844 246 L 311.964844 291 L 62.964844 291 Z M 62.964844 246 " clip-rule="nonzero"/></clipPath><clipPath id="45e3db377d"><path d="M 21.25 21.230469 L 353.5 21.230469 L 353.5 353.480469 L 21.25 353.480469 Z M 21.25 21.230469 " clip-rule="nonzero"/></clipPath></defs><g clip-path="url(#d499d57b76)"><path fill="#d9dcd6" d="M 307.417969 187.5 C 307.417969 253.785156 253.703125 307.5 187.417969 307.5 C 121.132812 307.5 67.621094 253.785156 67.621094 187.5 Z M 307.417969 187.5 " fill-opacity="1" fill-rule="nonzero"/></g><g clip-path="url(#66e6e14ea8)"><path fill="#d9dcd6" d="M 67.621094 187.5 C 67.621094 121.214844 121.335938 67.5 187.621094 67.5 C 253.90625 67.5 307.417969 121.214844 307.417969 187.5 Z M 67.621094 187.5 " fill-opacity="1" fill-rule="nonzero"/></g><g fill="#2f6690" fill-opacity="1"><g transform="translate(92.606709, 206.256353)"><g><path d="M -13.5625 -1.726562 C -13.304688 -0.0507812 -11.847656 1.125 -10.300781 0.882812 L -0.132812 -0.6875 C -0.121094 -0.6875 -0.105469 -0.691406 -0.105469 -0.691406 L -0.960938 -6.210938 C -1.199219 -7.757812 -2.746094 -8.792969 -4.433594 -8.535156 L -3.621094 -3.265625 Z M -13.5625 -1.726562 "/></g></g></g><g fill="#2f6690" fill-opacity="1"><g transform="translate(90.927853, 195.117207)"><g><path d="M -12.28125 -9.722656 C -12.460938 -9.632812 -12.636719 -9.488281 -12.800781 -9.285156 C -13.300781 -8.738281 -13.53125 -7.988281 -13.578125 -7.191406 C -13.605469 -6.710938 -13.589844 -5.328125 -13.574219 -4.796875 C -13.554688 -4.222656 -13.511719 -3.707031 -13.453125 -3.203125 C -13.253906 -1.613281 -12.09375 -0.332031 -10.527344 -0.378906 L -2.664062 -0.617188 C -2.132812 -0.636719 -1.632812 -0.804688 -1.222656 -1.082031 C -1.03125 -1.171875 -0.867188 -1.316406 -0.703125 -1.519531 C -0.203125 -2.066406 0.0273438 -2.816406 0.0703125 -3.613281 C 0.0976562 -4.089844 0.113281 -4.597656 0.09375 -5.140625 C 0.078125 -5.699219 0.0234375 -7.097656 -0.0507812 -7.601562 C -0.238281 -9.191406 -1.398438 -10.472656 -2.964844 -10.425781 L -10.824219 -10.1875 C -11.355469 -10.167969 -11.855469 -10 -12.28125 -9.722656 Z M -3.769531 -7.488281 C -3.335938 -7.429688 -3.019531 -7.160156 -3.003906 -6.699219 L -2.933594 -4.335938 C -2.917969 -3.886719 -3.21875 -3.585938 -3.648438 -3.5 L -9.804688 -3.3125 C -10.238281 -3.371094 -10.554688 -3.640625 -10.570312 -4.101562 L -10.640625 -6.46875 C -10.65625 -6.929688 -10.355469 -7.21875 -9.910156 -7.300781 Z M -3.769531 -7.488281 "/></g></g></g><g fill="#2f6690" fill-opacity="1"><g transform="translate(90.68428, 182.469984)"><g><path d="M -5.667969 -9.046875 C -6.695312 -8.410156 -7.425781 -7.3125 -7.546875 -6.015625 L -7.632812 -5.082031 C -7.679688 -4.539062 -8.167969 -4.132812 -8.710938 -4.183594 L -8.808594 -4.191406 C -9.351562 -4.238281 -9.757812 -4.726562 -9.707031 -5.269531 L -9.585938 -6.609375 C -9.445312 -8.15625 -10.625 -9.527344 -12.3125 -9.683594 L -12.691406 -5.542969 C -12.890625 -3.355469 -11.269531 -1.40625 -9.082031 -1.207031 L -8.984375 -1.199219 C -8.089844 -1.117188 -7.242188 -1.335938 -6.527344 -1.777344 C -5.5 -2.414062 -4.769531 -3.5 -4.648438 -4.808594 L -4.5625 -5.742188 C -4.515625 -6.273438 -4.027344 -6.691406 -3.496094 -6.644531 L -3.386719 -6.632812 C -2.855469 -6.585938 -2.4375 -6.082031 -2.488281 -5.554688 L -2.640625 -3.878906 C -2.78125 -2.332031 -1.613281 -0.960938 0.0742188 -0.808594 L 0.480469 -5.28125 C 0.683594 -7.46875 -0.925781 -9.414062 -3.113281 -9.617188 L -3.226562 -9.625 C -4.101562 -9.707031 -4.953125 -9.488281 -5.667969 -9.046875 Z M -5.667969 -9.046875 "/></g></g></g><g fill="#2f6690" fill-opacity="1"><g transform="translate(91.744313, 171.540744)"><g><path d="M -12.234375 -5.394531 C -12.558594 -3.863281 -11.683594 -2.390625 -10.023438 -2.042969 L -9.273438 -5.617188 L 0.738281 -3.503906 C 1.089844 -5.164062 0.136719 -6.765625 -1.382812 -7.085938 L -8.640625 -8.613281 L -8.46875 -9.421875 C -8.144531 -10.957031 -9.023438 -12.429688 -10.679688 -12.777344 Z M -12.234375 -5.394531 "/></g></g></g><g fill="#2f6690" fill-opacity="1"><g transform="translate(94.397135, 159.974799)"><g/></g></g><g fill="#2f6690" fill-opacity="1"><g transform="translate(96.037037, 154.400583)"><g><path d="M -3.382812 -12.023438 L -4.1875 -10.070312 C -5.230469 -10.042969 -6.28125 -9.734375 -6.566406 -9.035156 L -4.898438 -8.347656 L -5.449219 -7.015625 C -5.46875 -6.964844 -5.492188 -6.910156 -5.5 -6.855469 L -5.570312 -6.6875 C -5.710938 -6.335938 -6.109375 -6.183594 -6.445312 -6.320312 L -7.894531 -6.917969 C -8.21875 -7.050781 -8.371094 -7.417969 -8.238281 -7.742188 L -7.566406 -9.371094 C -7.078125 -10.550781 -7.699219 -11.941406 -8.972656 -12.496094 C -9.011719 -12.511719 -9.058594 -12.5 -9.074219 -12.460938 L -9.714844 -10.910156 C -9.738281 -10.859375 -9.757812 -10.804688 -9.765625 -10.75 L -9.78125 -10.753906 L -10.992188 -7.816406 L -10.976562 -7.8125 C -11.382812 -6.648438 -10.9375 -5.449219 -9.957031 -4.894531 L -9.960938 -4.878906 L -9.9375 -4.871094 C -9.863281 -4.824219 -9.773438 -4.789062 -9.695312 -4.753906 L -7.496094 -3.847656 C -6.628906 -3.492188 -5.832031 -3.769531 -5.269531 -4.441406 C -5.324219 -3.574219 -4.96875 -2.820312 -4.101562 -2.464844 L -1.902344 -1.554688 C -0.738281 -1.074219 0.589844 -1.617188 1.164062 -2.820312 L 2.375 -5.757812 C 2.394531 -5.808594 2.417969 -5.859375 2.4375 -5.914062 L 3.109375 -7.542969 C 3.109375 -7.542969 3.097656 -7.546875 3.085938 -7.554688 L -2.011719 -9.65625 C -1.824219 -10.59375 -2.386719 -11.613281 -3.382812 -12.023438 Z M -0.765625 -4.675781 C -0.898438 -4.351562 -1.285156 -4.191406 -1.605469 -4.324219 L -3.300781 -5.023438 C -3.574219 -5.136719 -3.703125 -5.449219 -3.589844 -5.71875 L -3.117188 -6.871094 C -3.078125 -6.960938 -3.058594 -7.042969 -3.027344 -7.121094 L -2.867188 -7.511719 L -0.0742188 -6.359375 C -0.0820312 -6.332031 -0.0898438 -6.320312 -0.09375 -6.304688 Z M -0.765625 -4.675781 "/></g></g></g><g fill="#2f6690" fill-opacity="1"><g transform="translate(100.872511, 143.253922)"><g/></g></g><g fill="#2f6690" fill-opacity="1"><g transform="translate(103.546788, 138.062303)"><g><path d="M -5.007812 -10.820312 C -4.054688 -12.304688 -4.515625 -14.046875 -5.964844 -14.976562 L -9.125 -10.054688 C -9.9375 -8.714844 -9.546875 -6.964844 -8.226562 -6.117188 L 0.507812 -0.503906 L 0.523438 -0.527344 C 1.386719 -1.871094 1.078125 -3.800781 -0.265625 -4.660156 L -1.925781 -5.726562 L -1.230469 -6.8125 C -0.214844 -8.390625 -0.597656 -9.996094 -1.984375 -10.890625 L -4.316406 -7.265625 L -6.421875 -8.617188 Z M -5.007812 -10.820312 "/></g></g></g><g fill="#2f6690" fill-opacity="1"><g transform="translate(109.502573, 128.853598)"><g><path d="M -2.777344 -15.414062 C -2.96875 -15.464844 -3.199219 -15.476562 -3.453125 -15.429688 C -4.191406 -15.351562 -4.859375 -14.941406 -5.421875 -14.375 C -5.757812 -14.035156 -6.664062 -12.984375 -7.003906 -12.578125 C -7.371094 -12.136719 -7.679688 -11.71875 -7.96875 -11.304688 C -8.871094 -9.976562 -8.847656 -8.25 -7.640625 -7.25 L -1.589844 -2.226562 C -1.179688 -1.886719 -0.695312 -1.683594 -0.199219 -1.621094 C 0.00390625 -1.5625 0.222656 -1.5625 0.476562 -1.605469 C 1.214844 -1.683594 1.882812 -2.09375 2.445312 -2.664062 C 2.78125 -3 3.125 -3.371094 3.472656 -3.792969 C 3.832031 -4.222656 4.714844 -5.308594 4.992188 -5.730469 C 5.902344 -7.050781 5.882812 -8.777344 4.675781 -9.777344 L -1.378906 -14.800781 C -1.785156 -15.140625 -2.273438 -15.34375 -2.777344 -15.414062 Z M 2.128906 -8.109375 C 2.417969 -7.777344 2.476562 -7.367188 2.179688 -7.011719 L 0.667969 -5.191406 C 0.382812 -4.847656 -0.0390625 -4.816406 -0.417969 -5.039062 L -5.15625 -8.972656 C -5.449219 -9.300781 -5.503906 -9.714844 -5.210938 -10.070312 L -3.699219 -11.890625 C -3.40625 -12.246094 -2.988281 -12.265625 -2.601562 -12.03125 Z M 2.128906 -8.109375 "/></g></g></g><g fill="#2f6690" fill-opacity="1"><g transform="translate(117.639026, 119.210824)"><g><path d="M -2.367188 -15.171875 C -2.765625 -14.148438 -2.621094 -12.984375 -1.867188 -12.175781 L 2.957031 -7.007812 C 3.234375 -6.710938 3.234375 -6.234375 2.9375 -5.9375 C 2.9375 -5.9375 2.9375 -5.9375 2.929688 -5.929688 L 2.652344 -5.671875 L 1.761719 -4.839844 C 1.597656 -4.6875 1.417969 -4.613281 1.238281 -4.621094 C 1.03125 -4.617188 0.835938 -4.703125 0.691406 -4.859375 L -4.148438 -10.046875 C -4.882812 -10.832031 -6.011719 -11.082031 -7.042969 -10.769531 C -7.523438 -10.628906 -7.988281 -10.386719 -8.386719 -10.015625 L -1.265625 -2.378906 C -0.757812 -1.839844 -0.0664062 -1.546875 0.65625 -1.53125 C 0.734375 -1.527344 0.816406 -1.527344 0.90625 -1.53125 C 1.636719 -1.507812 2.351562 -1.828125 2.992188 -2.332031 C 3.359375 -2.617188 3.757812 -2.949219 4.144531 -3.3125 C 4.238281 -3.398438 4.347656 -3.503906 4.484375 -3.628906 C 4.972656 -4.085938 5.097656 -4.238281 5.34375 -4.527344 C 5.695312 -4.910156 5.949219 -5.339844 6.09375 -5.78125 C 6.484375 -6.816406 6.328125 -7.96875 5.582031 -8.769531 L -1.539062 -16.402344 C -1.917969 -16.046875 -2.191406 -15.621094 -2.367188 -15.171875 Z M -2.367188 -15.171875 "/></g></g></g><g fill="#2f6690" fill-opacity="1"><g transform="translate(126.523057, 110.963572)"><g><path d="M 1.265625 -13.546875 L 4.054688 -9.621094 L -4.722656 -12.796875 C -6.011719 -11.882812 -6.304688 -10.09375 -5.398438 -8.816406 L 0.609375 -0.347656 C 1.902344 -1.261719 2.203125 -3.039062 1.289062 -4.328125 L -1.78125 -8.652344 L 6.675781 -5.921875 L 7.277344 -5.078125 C 8.566406 -5.992188 8.917969 -7.820312 8.003906 -9.109375 L 2 -17.566406 C 0.710938 -16.652344 0.359375 -14.824219 1.265625 -13.546875 Z M 1.265625 -13.546875 "/></g></g></g><g fill="#2f6690" fill-opacity="1"><g transform="translate(137.905534, 103.060546)"><g><path d="M -1.375 -14.304688 L -2.976562 -13.464844 C -2.976562 -13.464844 -2.976562 -13.464844 -2.988281 -13.460938 L -3.261719 -13.316406 L -3.253906 -13.304688 C -4.558594 -12.445312 -4.90625 -10.875 -4.21875 -9.5625 L 0.664062 -0.238281 C 0.664062 -0.238281 0.679688 -0.246094 0.679688 -0.246094 L 4.84375 -2.425781 C 7.285156 -3.703125 8.183594 -6.480469 7.0625 -8.628906 L 5.160156 -12.257812 C 3.738281 -14.976562 1.066406 -15.582031 -1.375 -14.304688 Z M 4.332031 -7.71875 C 4.84375 -6.738281 4.503906 -5.457031 3.527344 -4.941406 L 1.925781 -4.105469 C 1.917969 -4.117188 1.90625 -4.140625 1.898438 -4.15625 L -1.65625 -10.949219 L -0.0585938 -11.785156 C 0.921875 -12.300781 2.167969 -11.847656 2.683594 -10.867188 Z M 4.332031 -7.71875 "/></g></g></g><g fill="#2f6690" fill-opacity="1"><g transform="translate(149.160789, 97.433177)"><g/></g></g><g fill="#2f6690" fill-opacity="1"><g transform="translate(154.395937, 95.112089)"><g><path d="M 5.523438 -15.285156 L 3.996094 -10.535156 L 0.167969 -13.753906 L 0.152344 -13.75 C -1.582031 -13.25 -2.578125 -11.449219 -2.074219 -9.714844 L 0.6875 -0.140625 C 2.421875 -0.640625 3.417969 -2.441406 2.917969 -4.175781 L 1.667969 -8.507812 L 5.242188 -6.21875 L 6.996094 -10.175781 L 9.1875 -2.59375 C 10.921875 -3.09375 11.914062 -4.894531 11.414062 -6.628906 L 8.65625 -16.191406 Z M 5.523438 -15.285156 "/></g></g></g><g fill="#2f6690" fill-opacity="1"><g transform="translate(168.699387, 91.173457)"><g><path d="M 5.972656 -12.40625 C 5.691406 -13.085938 5.25 -13.515625 4.589844 -13.777344 C 4.230469 -13.921875 3.855469 -13.96875 3.46875 -13.914062 C 3.078125 -13.855469 2.734375 -13.707031 2.441406 -13.46875 C 1.882812 -13.035156 1.5625 -12.496094 1.5 -11.765625 L 0.0859375 -0.0976562 C 1.703125 0.0546875 3.121094 -1.011719 3.277344 -2.492188 L 3.339844 -3.136719 L 3.351562 -3.460938 L 6.507812 -3.914062 L 6.625 -3.605469 L 6.867188 -3.003906 C 7.414062 -1.625 9.089844 -1.003906 10.585938 -1.597656 Z M 5.691406 -6.171875 L 3.503906 -5.859375 L 3.996094 -10.226562 Z M 5.691406 -6.171875 "/></g></g></g><g fill="#2f6690" fill-opacity="1"><g transform="translate(180.797615, 89.478122)"><g><path d="M 8.789062 -10.382812 L 8.828125 -5.570312 L 3.449219 -13.195312 C 1.867188 -13.183594 0.605469 -11.886719 0.617188 -10.320312 L 0.699219 0.0625 C 2.28125 0.0507812 3.546875 -1.230469 3.53125 -2.8125 L 3.492188 -8.117188 L 8.863281 -1.035156 L 8.875 0 C 10.453125 -0.0117188 11.789062 -1.3125 11.773438 -2.894531 L 11.691406 -13.261719 C 10.109375 -13.25 8.777344 -11.953125 8.789062 -10.382812 Z M 8.789062 -10.382812 "/></g></g></g><g fill="#2f6690" fill-opacity="1"><g transform="translate(194.658384, 89.512879)"><g><path d="M 9.046875 -10.378906 C 8.957031 -11.109375 8.644531 -11.640625 8.074219 -12.066406 C 7.769531 -12.304688 7.417969 -12.445312 7.03125 -12.496094 C 6.640625 -12.546875 6.269531 -12.492188 5.925781 -12.339844 C 5.269531 -12.070312 4.820312 -11.632812 4.5625 -10.945312 L 0.109375 -0.0703125 C 1.628906 0.503906 3.277344 -0.148438 3.820312 -1.53125 L 4.050781 -2.136719 L 4.148438 -2.449219 L 7.3125 -2.050781 L 7.34375 -1.722656 L 7.414062 -1.078125 C 7.582031 0.398438 9.027344 1.441406 10.632812 1.265625 Z M 7.125 -4.441406 L 4.929688 -4.722656 L 6.5625 -8.804688 Z M 7.125 -4.441406 "/></g></g></g><g fill="#2f6690" fill-opacity="1"><g transform="translate(206.813642, 91.144901)"><g><path d="M 1.335938 -1.433594 C 1.421875 -0.976562 1.640625 -0.53125 1.933594 -0.152344 C 2.304688 0.304688 2.804688 0.664062 3.414062 0.878906 L 7.644531 1.96875 C 8.820312 2.054688 10.042969 1.34375 10.378906 0.0429688 L 10.890625 -1.890625 C 11.105469 -2.71875 11.941406 -4.671875 9.867188 -5.207031 L 7.210938 -5.890625 C 6.863281 -4.546875 7.371094 -3.535156 8.457031 -3.039062 C 8.433594 -2.957031 8.398438 -2.867188 8.375 -2.785156 L 7.882812 -0.859375 L 4.996094 -1.605469 C 4.5625 -1.714844 4.363281 -2.070312 4.417969 -2.503906 L 5.636719 -7.246094 C 5.636719 -7.292969 5.648438 -7.347656 5.660156 -7.386719 L 5.882812 -8.253906 C 5.898438 -8.308594 5.90625 -8.347656 5.929688 -8.371094 C 6.082031 -8.75 6.511719 -8.960938 6.902344 -8.902344 L 8.746094 -8.425781 L 8.660156 -8.101562 C 10.097656 -7.730469 11.277344 -8.496094 11.621094 -9.828125 L 11.804688 -10.542969 L 6.355469 -11.949219 C 4.914062 -12.234375 3.667969 -11.441406 3.257812 -9.839844 C 3.257812 -9.839844 3.253906 -9.828125 3.25 -9.8125 L 1.386719 -2.578125 C 1.285156 -2.183594 1.277344 -1.808594 1.335938 -1.433594 Z M 1.335938 -1.433594 "/></g></g></g><g fill="#2f6690" fill-opacity="1"><g transform="translate(218.636483, 94.309676)"><g><path d="M 5.242188 -3.527344 L 8.054688 -2.425781 L 9.746094 -4.859375 L 6.289062 -6.210938 L 7.019531 -8.074219 L 9.640625 -7.050781 C 11.230469 -6.429688 12.789062 -7.304688 13.417969 -8.910156 L 8.125 -10.976562 C 6.574219 -11.585938 4.816406 -10.816406 4.203125 -9.25 L 1.589844 -2.5625 C 0.988281 -1.027344 1.734375 0.679688 3.269531 1.28125 L 5.160156 2.019531 C 6.75 2.640625 8.496094 1.835938 9.121094 0.230469 L 4.480469 -1.582031 Z M 5.242188 -3.527344 "/></g></g></g><g fill="#2f6690" fill-opacity="1"><g transform="translate(229.042022, 98.34105)"><g><path d="M 14.730469 -6.871094 L 10.285156 -4.601562 L 9.867188 -9.585938 L 9.851562 -9.59375 C 8.273438 -10.46875 6.296875 -9.902344 5.417969 -8.324219 L 0.585938 0.386719 C 2.164062 1.265625 4.140625 0.699219 5.019531 -0.878906 L 7.203125 -4.820312 L 8.105469 -0.671875 L 12.148438 -2.222656 L 8.320312 4.679688 C 9.898438 5.554688 11.875 4.988281 12.753906 3.410156 L 17.582031 -5.289062 Z M 14.730469 -6.871094 "/></g></g></g><g fill="#2f6690" fill-opacity="1"><g transform="translate(241.935173, 105.742115)"><g><path d="M 5.988281 -2.015625 L 8.410156 -0.207031 L 10.683594 -2.109375 L 7.710938 -4.324219 L 8.90625 -5.929688 L 11.160156 -4.25 C 12.53125 -3.230469 14.265625 -3.664062 15.296875 -5.042969 L 10.738281 -8.4375 C 9.402344 -9.433594 7.503906 -9.15625 6.5 -7.808594 L 2.210938 -2.054688 C 1.222656 -0.730469 1.492188 1.113281 2.816406 2.097656 L 4.445312 3.3125 C 5.8125 4.332031 7.707031 4.015625 8.734375 2.636719 L 4.742188 -0.34375 Z M 5.988281 -2.015625 "/></g></g></g><g fill="#2f6690" fill-opacity="1"><g transform="translate(250.904824, 112.426623)"><g><path d="M 13.550781 -1.234375 L 10.199219 2.222656 L 11.714844 -6.984375 C 10.578125 -8.085938 8.769531 -8.046875 7.679688 -6.921875 L 0.453125 0.535156 C 1.589844 1.636719 3.390625 1.609375 4.492188 0.472656 L 8.179688 -3.335938 L 7.046875 5.480469 L 6.324219 6.222656 C 7.460938 7.324219 9.320312 7.332031 10.421875 6.199219 L 17.636719 -1.25 C 16.5 -2.351562 14.640625 -2.363281 13.550781 -1.234375 Z M 13.550781 -1.234375 "/></g></g></g><g fill="#2f6690" fill-opacity="1"><g transform="translate(260.760398, 122.196818)"><g><path d="M 11.96875 -5.96875 C 10.992188 -7.195312 9.300781 -7.460938 7.972656 -6.410156 L 10.242188 -3.546875 L 2.226562 2.808594 C 3.277344 4.136719 5.117188 4.425781 6.332031 3.460938 L 12.148438 -1.144531 L 12.660156 -0.496094 C 13.632812 0.730469 15.324219 0.996094 16.652344 -0.0546875 Z M 11.96875 -5.96875 "/></g></g></g><g fill="#2f6690" fill-opacity="1"><g transform="translate(267.964816, 131.625728)"><g/></g></g><g fill="#2f6690" fill-opacity="1"><g transform="translate(271.199405, 136.487817)"><g><path d="M 9.710938 4.4375 C 10.21875 3.339844 10.226562 2.015625 9.609375 0.871094 L 9.167969 0.0429688 C 8.910156 -0.4375 9.09375 -1.042969 9.574219 -1.300781 L 9.660156 -1.347656 C 10.140625 -1.605469 10.75 -1.421875 11.003906 -0.941406 L 11.640625 0.242188 C 12.375 1.613281 14.117188 2.109375 15.609375 1.308594 L 13.644531 -2.355469 C 12.609375 -4.292969 10.183594 -5.027344 8.246094 -3.988281 L 8.160156 -3.941406 C 7.371094 -3.519531 6.78125 -2.871094 6.425781 -2.109375 C 5.917969 -1.011719 5.90625 0.296875 6.527344 1.457031 L 6.96875 2.285156 C 7.222656 2.753906 7.042969 3.371094 6.574219 3.621094 L 6.476562 3.675781 C 6.007812 3.925781 5.382812 3.738281 5.132812 3.269531 L 4.339844 1.789062 C 3.605469 0.417969 1.875 -0.0820312 0.382812 0.714844 L 2.503906 4.675781 C 3.542969 6.613281 5.953125 7.351562 7.890625 6.316406 L 7.988281 6.261719 C 8.765625 5.847656 9.355469 5.195312 9.710938 4.4375 Z M 9.710938 4.4375 "/></g></g></g><g fill="#2f6690" fill-opacity="1"><g transform="translate(276.364097, 146.095273)"><g><path d="M 13.65625 3.683594 L 9.710938 3.351562 L 12.4375 0.476562 C 13.550781 -0.691406 13.574219 -2.691406 12.289062 -3.910156 L 5.734375 3.003906 L 1.050781 2.609375 C 0.894531 4.375 2.105469 5.59375 3.726562 5.726562 L 16.320312 6.804688 C 16.476562 5.054688 15.261719 3.824219 13.65625 3.683594 Z M 13.65625 3.683594 "/></g></g></g><g fill="#2f6690" fill-opacity="1"><g transform="translate(281.23338, 159.486658)"><g><path d="M 8.253906 6.773438 C 9.023438 5.84375 9.367188 4.566406 9.066406 3.300781 L 8.851562 2.386719 C 8.726562 1.855469 9.058594 1.316406 9.589844 1.191406 L 9.683594 1.167969 C 10.214844 1.042969 10.753906 1.375 10.878906 1.90625 L 11.191406 3.214844 C 11.550781 4.726562 13.105469 5.648438 14.753906 5.257812 L 13.792969 1.214844 C 13.289062 -0.921875 11.128906 -2.253906 8.992188 -1.746094 L 8.898438 -1.722656 C 8.027344 -1.515625 7.289062 -1.039062 6.753906 -0.394531 C 5.980469 0.539062 5.632812 1.800781 5.9375 3.078125 L 6.152344 3.992188 C 6.277344 4.507812 5.949219 5.0625 5.429688 5.183594 L 5.320312 5.210938 C 4.804688 5.332031 4.246094 4.988281 4.125 4.472656 L 3.738281 2.839844 C 3.378906 1.328125 1.835938 0.398438 0.1875 0.789062 L 1.222656 5.160156 C 1.730469 7.296875 3.875 8.632812 6.011719 8.125 L 6.121094 8.097656 C 6.980469 7.894531 7.714844 7.417969 8.253906 6.773438 Z M 8.253906 6.773438 "/></g></g></g><g fill="#2f6690" fill-opacity="1"><g transform="translate(283.706215, 170.185125)"><g><path d="M 13.316406 1.222656 C 13.136719 -0.335938 11.835938 -1.453125 10.152344 -1.257812 L 10.578125 2.371094 L 0.414062 3.558594 C 0.613281 5.242188 2.023438 6.457031 3.566406 6.277344 L 10.933594 5.417969 L 11.027344 6.238281 C 11.210938 7.792969 12.507812 8.910156 14.191406 8.714844 Z M 13.316406 1.222656 "/></g></g></g><g fill="#2f6690" fill-opacity="1"><g transform="translate(284.96084, 181.819206)"><g><path d="M 5.1875 3.605469 L 5.179688 6.628906 L 8.0625 7.320312 L 8.070312 3.613281 L 10.070312 3.613281 L 10.066406 6.429688 C 10.0625 8.136719 11.445312 9.273438 13.167969 9.273438 L 13.175781 3.59375 C 13.179688 1.925781 11.824219 0.566406 10.144531 0.5625 L 2.964844 0.550781 C 1.316406 0.546875 -0.00390625 1.863281 -0.0078125 3.511719 L -0.0117188 5.542969 C -0.0117188 7.25 1.371094 8.582031 3.089844 8.585938 L 3.101562 3.601562 Z M 5.1875 3.605469 "/></g></g></g><g fill="#2f6690" fill-opacity="1"><g transform="translate(284.977268, 192.976144)"><g><path d="M 11.742188 11.234375 L 8.015625 7.917969 L 12.511719 5.71875 L 12.511719 5.707031 C 12.757812 3.917969 11.511719 2.277344 9.722656 2.035156 L -0.148438 0.6875 C -0.394531 2.472656 0.851562 4.113281 2.640625 4.359375 L 7.105469 4.96875 L 3.566406 7.308594 L 6.472656 10.515625 L -1.347656 9.449219 C -1.589844 11.238281 -0.34375 12.878906 1.445312 13.121094 L 11.300781 14.46875 Z M 11.742188 11.234375 "/></g></g></g><g clip-path="url(#1ec72caa7e)"><g clip-path="url(#8d4739d788)"><path fill="#ffffff" d="M 97.125 97.210938 L 277.875 97.210938 L 277.875 277.789062 L 97.125 277.789062 Z M 97.125 97.210938 " fill-opacity="1" fill-rule="nonzero"/></g></g><g clip-path="url(#808d43e010)"><path fill="#16425b" d="M 194.402344 193.878906 L 178.992188 193.878906 C 178.28125 193.878906 177.707031 194.457031 177.707031 195.164062 L 177.707031 237.105469 C 177.707031 237.816406 178.28125 238.390625 178.992188 238.390625 L 253.664062 238.390625 C 254.375 238.390625 254.949219 237.816406 254.949219 237.105469 L 254.949219 221.695312 C 254.949219 220.984375 254.375 220.410156 253.664062 220.410156 L 196.972656 220.410156 C 196.261719 220.410156 195.6875 219.835938 195.6875 219.125 L 195.6875 195.164062 C 195.6875 194.457031 195.113281 193.878906 194.402344 193.878906 Z M 178.992188 163.058594 L 194.402344 163.058594 C 195.113281 163.058594 195.6875 162.480469 195.6875 161.773438 L 195.6875 110.800781 C 192.730469 110.414062 189.726562 110.21875 186.695312 110.21875 C 184.058594 110.21875 181.441406 110.363281 178.855469 110.660156 C 178.203125 110.734375 177.707031 111.28125 177.707031 111.9375 L 177.707031 161.773438 C 177.707031 162.480469 178.28125 163.058594 178.992188 163.058594 Z M 254.949219 178.46875 L 254.949219 208.316406 C 254.949219 209.023438 254.375 209.601562 253.664062 209.601562 L 238.253906 209.601562 C 237.542969 209.601562 236.96875 209.023438 236.96875 208.316406 L 236.96875 188.742188 C 236.96875 188.035156 236.390625 187.457031 235.683594 187.457031 L 137.710938 187.457031 C 137 187.457031 136.425781 188.035156 136.425781 188.742188 L 136.425781 237.132812 C 136.425781 237.84375 135.851562 238.417969 135.140625 238.417969 L 119.730469 238.417969 C 119.019531 238.417969 118.445312 237.84375 118.445312 237.132812 L 118.445312 179.101562 C 118.445312 158.988281 127.039062 139.738281 142.296875 126.625 C 150.289062 119.761719 159.628906 114.914062 169.683594 112.34375 C 170.496094 112.136719 171.285156 112.753906 171.285156 113.589844 L 171.285156 129.691406 C 171.285156 130.242188 170.929688 130.730469 170.40625 130.90625 C 153.898438 136.578125 141.246094 150.617188 137.539062 167.933594 C 137.367188 168.726562 137.980469 169.480469 138.796875 169.480469 L 234.597656 169.480469 C 235.410156 169.480469 236.027344 168.726562 235.855469 167.933594 C 232.148438 150.617188 219.496094 136.578125 202.988281 130.90625 C 202.464844 130.730469 202.109375 130.242188 202.109375 129.691406 L 202.109375 113.589844 C 202.109375 112.753906 202.898438 112.136719 203.710938 112.34375 C 215.429688 115.335938 226.179688 121.429688 234.957031 130.207031 C 247.847656 143.097656 254.949219 160.238281 254.949219 178.46875 " fill-opacity="1" fill-rule="nonzero"/></g><g clip-path="url(#91c7c17d2b)"><path fill="#16425b" d="M 187.511719 313.144531 C 118.097656 313.144531 61.863281 256.523438 61.863281 187.496094 C 61.863281 118.464844 118.097656 61.847656 187.511719 61.847656 C 256.929688 61.847656 313.160156 118.078125 313.160156 187.496094 C 313.160156 256.910156 256.542969 313.144531 187.511719 313.144531 Z M 187.511719 69.601562 C 122.363281 69.601562 69.621094 122.34375 69.621094 187.496094 C 69.621094 252.644531 122.363281 305.386719 187.511719 305.386719 C 252.664062 305.386719 305.40625 252.644531 305.40625 187.496094 C 305.40625 122.34375 252.277344 69.601562 187.511719 69.601562 Z M 187.511719 69.601562 " fill-opacity="1" fill-rule="nonzero"/></g><g clip-path="url(#8ec34e973b)"><path fill="#2f6690" d="M 187.515625 320.355469 C 114.113281 320.355469 54.652344 260.488281 54.652344 187.496094 C 54.652344 114.503906 114.113281 54.632812 187.515625 54.632812 C 260.917969 54.632812 320.375 114.09375 320.375 187.496094 C 320.375 260.898438 260.507812 320.355469 187.515625 320.355469 Z M 187.515625 62.835938 C 118.625 62.835938 62.855469 118.605469 62.855469 187.496094 C 62.855469 256.386719 118.625 312.15625 187.515625 312.15625 C 256.40625 312.15625 312.175781 256.386719 312.175781 187.496094 C 312.175781 118.605469 255.996094 62.835938 187.515625 62.835938 Z M 187.515625 62.835938 " fill-opacity="1" fill-rule="nonzero"/></g><g clip-path="url(#94211b56e5)"><path fill="#0b2d29" d="M 88.441406 287.570312 L 146.964844 287.570312 L 136.230469 249.714844 L 77.535156 249.714844 L 85.414062 277.492188 L 75.332031 287.570312 Z M 88.441406 287.570312 " fill-opacity="1" fill-rule="nonzero"/><path fill="#ffffff" d="M 88.441406 287.570312 L 146.964844 287.570312 L 146.207031 284.894531 L 78.007812 284.894531 L 75.332031 287.570312 Z M 77.535156 249.714844 L 136.230469 249.714844 L 136.988281 252.394531 L 78.292969 252.394531 Z M 77.535156 249.714844 " fill-opacity="1" fill-rule="nonzero"/></g><g clip-path="url(#d5b565312a)"><path fill="#0b2d29" d="M 286.589844 287.570312 L 228.066406 287.570312 L 238.800781 249.714844 L 297.496094 249.714844 L 289.621094 277.492188 L 299.699219 287.570312 Z M 286.589844 287.570312 " fill-opacity="1" fill-rule="nonzero"/><path fill="#ffffff" d="M 286.589844 287.570312 L 228.066406 287.570312 L 228.824219 284.894531 L 297.023438 284.894531 L 299.699219 287.570312 Z M 297.496094 249.714844 L 238.800781 249.714844 L 238.042969 252.394531 L 296.738281 252.394531 Z M 297.496094 249.714844 " fill-opacity="1" fill-rule="nonzero"/></g><g clip-path="url(#a5e3eea764)"><path fill="#16425b" d="M 312.058594 246.347656 L 312.058594 290.894531 L 62.980469 290.894531 L 62.980469 246.347656 Z M 312.058594 246.347656 " fill-opacity="1" fill-rule="nonzero"/></g><path stroke-linecap="butt" transform="matrix(1.288699, 0, 0, 1.288699, 62.966338, 246.346126)" fill-opacity="1" fill="#16425b" fill-rule="nonzero" stroke-linejoin="miter" d="M 1.999405 1.998721 L 191.28011 1.998721 L 191.28011 32.570987 L 1.999405 32.570987 Z M 1.999405 1.998721 " stroke="#ffffff" stroke-width="0.5" stroke-opacity="1" stroke-miterlimit="10"/><path fill="#ffffff" d="M 64.898438 248.277344 L 64.898438 288.964844 L 310.113281 288.964844 L 310.113281 248.277344 Z M 308.824219 287.675781 L 66.1875 287.675781 L 66.1875 249.566406 L 308.824219 249.566406 Z M 308.824219 287.675781 " fill-opacity="1" fill-rule="nonzero"/><g clip-path="url(#45e3db377d)"><path fill="#3b4663" d="M 187.515625 21.230469 C 95.652344 21.230469 21.25 95.632812 21.25 187.496094 C 21.25 279.355469 95.652344 353.761719 187.515625 353.761719 C 279.375 353.761719 353.78125 279.355469 353.78125 187.496094 C 353.78125 95.632812 279.375 21.230469 187.515625 21.230469 Z M 187.515625 320.507812 C 114.023438 320.507812 54.5 260.984375 54.5 187.496094 C 54.5 114.003906 114.023438 54.480469 187.515625 54.480469 C 261.003906 54.480469 320.527344 114.003906 320.527344 187.496094 C 320.527344 260.984375 261.003906 320.507812 187.515625 320.507812 Z M 187.515625 320.507812 " fill-opacity="1" fill-rule="nonzero"/></g><g fill="#ffffff" fill-opacity="1"><g transform="translate(97.81209, 277.945998)"><g><path d="M 11.507812 -17.15625 C 11.234375 -18.226562 10.667969 -18.964844 9.742188 -19.488281 C 9.238281 -19.78125 8.695312 -19.929688 8.105469 -19.929688 C 7.519531 -19.929688 6.972656 -19.78125 6.488281 -19.488281 C 5.566406 -18.964844 4.976562 -18.226562 4.726562 -17.15625 L 0.148438 -0.125 C 2.519531 0.441406 4.851562 -0.839844 5.398438 -3.003906 L 5.628906 -3.949219 L 5.710938 -4.429688 L 10.5 -4.429688 L 10.605469 -3.949219 L 10.835938 -3.003906 C 11.359375 -0.839844 13.714844 0.441406 16.066406 -0.125 Z M 9.765625 -7.960938 L 6.445312 -7.960938 L 8.105469 -14.34375 Z M 9.765625 -7.960938 "/></g></g></g><g fill="#ffffff" fill-opacity="1"><g transform="translate(129.312154, 277.945998)"><g><path d="M 14.320312 -19.738281 L 10.144531 -13.523438 L 5.964844 -19.761719 L 5.941406 -19.761719 C 3.234375 -19.761719 1.050781 -17.578125 1.050781 -14.867188 L 1.050781 0.0859375 C 3.757812 0.0859375 5.941406 -2.101562 5.941406 -4.808594 L 5.941406 -11.570312 L 10.144531 -6.78125 L 14.320312 -11.761719 L 14.320312 0.0859375 C 17.03125 0.0859375 19.214844 -2.101562 19.214844 -4.808594 L 19.214844 -19.738281 Z M 14.320312 -19.738281 "/></g></g></g><g fill="#ffffff" fill-opacity="1"><g transform="translate(164.802234, 277.945998)"><g><path d="M 11.507812 -17.15625 C 11.234375 -18.226562 10.667969 -18.964844 9.742188 -19.488281 C 9.238281 -19.78125 8.695312 -19.929688 8.105469 -19.929688 C 7.519531 -19.929688 6.972656 -19.78125 6.488281 -19.488281 C 5.566406 -18.964844 4.976562 -18.226562 4.726562 -17.15625 L 0.148438 -0.125 C 2.519531 0.441406 4.851562 -0.839844 5.398438 -3.003906 L 5.628906 -3.949219 L 5.710938 -4.429688 L 10.5 -4.429688 L 10.605469 -3.949219 L 10.835938 -3.003906 C 11.359375 -0.839844 13.714844 0.441406 16.066406 -0.125 Z M 9.765625 -7.960938 L 6.445312 -7.960938 L 8.105469 -14.34375 Z M 9.765625 -7.960938 "/></g></g></g><g fill="#ffffff" fill-opacity="1"><g transform="translate(196.302295, 277.945998)"><g><path d="M 13.3125 -15.476562 L 13.3125 -8.253906 L 5.335938 -19.761719 C 2.960938 -19.761719 1.050781 -17.828125 1.050781 -15.476562 L 1.050781 0.105469 C 3.421875 0.105469 5.335938 -1.804688 5.335938 -4.179688 L 5.335938 -12.136719 L 13.3125 -1.449219 L 13.3125 0.105469 C 15.6875 0.105469 17.703125 -1.828125 17.703125 -4.199219 L 17.703125 -19.761719 C 15.328125 -19.761719 13.3125 -17.828125 13.3125 -15.476562 Z M 13.3125 -15.476562 "/></g></g></g><g fill="#ffffff" fill-opacity="1"><g transform="translate(230.280374, 277.945998)"><g><path d="M 11.507812 -17.15625 C 11.234375 -18.226562 10.667969 -18.964844 9.742188 -19.488281 C 9.238281 -19.78125 8.695312 -19.929688 8.105469 -19.929688 C 7.519531 -19.929688 6.972656 -19.78125 6.488281 -19.488281 C 5.566406 -18.964844 4.976562 -18.226562 4.726562 -17.15625 L 0.148438 -0.125 C 2.519531 0.441406 4.851562 -0.839844 5.398438 -3.003906 L 5.628906 -3.949219 L 5.710938 -4.429688 L 10.5 -4.429688 L 10.605469 -3.949219 L 10.835938 -3.003906 C 11.359375 -0.839844 13.714844 0.441406 16.066406 -0.125 Z M 9.765625 -7.960938 L 6.445312 -7.960938 L 8.105469 -14.34375 Z M 9.765625 -7.960938 "/></g></g></g><g fill="#ffffff" fill-opacity="1"><g transform="translate(261.780441, 277.945998)"><g><path d="M 4.136719 -19.636719 C 1.785156 -19.636719 -0.105469 -17.890625 -0.105469 -15.351562 L 5.375 -15.351562 L 5.375 0 C 7.917969 0 9.976562 -1.890625 9.976562 -4.222656 L 9.976562 -15.351562 L 11.214844 -15.351562 C 13.566406 -15.351562 15.457031 -17.09375 15.457031 -19.636719 Z M 4.136719 -19.636719 "/></g></g></g></svg>